<svg width="130" height="40" viewBox="0 0 130 40" fill="none" xmlns="http://www.w3.org/2000/svg">
<path fill-rule="evenodd" clip-rule="evenodd" d="M33.1666 16.5C32.7063 16.5 32.3333 16.8731 32.3333 17.3333V22.6667C32.3333 23.1269 32.7063 23.5 33.1666 23.5H39.8333C40.2935 23.5 40.6666 23.1269 40.6666 22.6667V20.6735C40.6665 20.6686 40.6665 20.6638 40.6666 20.6589V19.0095C40.6665 19.0035 40.6665 18.9975 40.6666 18.9914V17.3333C40.6666 16.8731 40.2935 16.5 39.8333 16.5H33.1666ZM41.6666 18.1294V17.3333C41.6666 16.3208 40.8458 15.5 39.8333 15.5H33.1666C32.1541 15.5 31.3333 16.3208 31.3333 17.3333V22.6667C31.3333 23.6792 32.1541 24.5 33.1666 24.5H39.8333C40.8458 24.5 41.6666 23.6792 41.6666 22.6667V21.6009L44.3716 23.4043C44.4971 23.4878 44.6429 23.5357 44.7934 23.5429C44.944 23.5501 45.0937 23.5163 45.2266 23.4452C45.3595 23.374 45.4706 23.2682 45.5481 23.1389C45.6255 23.0096 45.6665 22.8617 45.6666 22.7109V17.2468C45.6666 17.2468 45.6666 17.2469 45.6666 17.2468C45.6666 17.1002 45.628 16.9561 45.5545 16.8292C45.4811 16.7023 45.3755 16.597 45.2484 16.524C45.1212 16.4509 44.977 16.4127 44.8304 16.4132C44.6838 16.4137 44.5399 16.4529 44.4133 16.5268L41.6666 18.1294ZM41.6666 19.2872V20.3991L44.6666 22.3991V17.5368L41.6666 19.2872Z" fill="#59B2FF"/>
<path d="M64.6855 20.4893C64.6855 21.2594 64.5876 21.9613 64.3916 22.5947C64.2002 23.2236 63.9108 23.766 63.5234 24.2217C63.1361 24.6729 62.6507 25.0215 62.0674 25.2676C61.484 25.5137 60.8005 25.6367 60.0166 25.6367C59.2191 25.6367 58.5264 25.5137 57.9385 25.2676C57.3551 25.0215 56.8698 24.6706 56.4824 24.2148C56.0996 23.7591 55.8125 23.2145 55.6211 22.5811C55.4297 21.9476 55.334 21.2458 55.334 20.4756C55.334 19.4456 55.5026 18.5479 55.8398 17.7822C56.1816 17.012 56.6989 16.415 57.3916 15.9912C58.0889 15.5628 58.9684 15.3486 60.0303 15.3486C61.0693 15.3486 61.9329 15.5605 62.6211 15.9844C63.3092 16.4082 63.8242 17.0052 64.166 17.7754C64.5124 18.541 64.6855 19.4456 64.6855 20.4893ZM57.0566 20.4893C57.0566 21.2594 57.1615 21.9271 57.3711 22.4922C57.5807 23.0527 57.902 23.4857 58.335 23.791C58.7725 24.0918 59.333 24.2422 60.0166 24.2422C60.7048 24.2422 61.2653 24.0918 61.6982 23.791C62.1312 23.4857 62.4502 23.0527 62.6553 22.4922C62.8604 21.9271 62.9629 21.2594 62.9629 20.4893C62.9629 19.318 62.7282 18.402 62.2588 17.7412C61.7939 17.0758 61.0511 16.7432 60.0303 16.7432C59.3467 16.7432 58.7839 16.8936 58.3418 17.1943C57.9043 17.4951 57.5807 17.9258 57.3711 18.4863C57.1615 19.0423 57.0566 19.71 57.0566 20.4893ZM70.6123 17.7891C71.4645 17.7891 72.1276 18.0101 72.6016 18.4521C73.0801 18.8896 73.3193 19.5938 73.3193 20.5645V25.5H71.7129V20.8652C71.7129 20.2773 71.5921 19.8376 71.3506 19.5459C71.109 19.2497 70.7354 19.1016 70.2295 19.1016C69.4958 19.1016 68.9854 19.3271 68.6982 19.7783C68.4157 20.2295 68.2744 20.8835 68.2744 21.7402V25.5H66.668V17.9326H67.9189L68.1445 18.958H68.2334C68.3975 18.6937 68.6003 18.4772 68.8418 18.3086C69.0879 18.1354 69.3613 18.0055 69.6621 17.9189C69.9674 17.8324 70.2842 17.7891 70.6123 17.7891ZM77.1816 25.5H75.5684V14.8633H77.1816V25.5ZM81.085 17.9326V25.5H79.4785V17.9326H81.085ZM80.292 15.0342C80.5381 15.0342 80.75 15.1003 80.9277 15.2324C81.11 15.3646 81.2012 15.5924 81.2012 15.916C81.2012 16.235 81.11 16.4629 80.9277 16.5996C80.75 16.7318 80.5381 16.7979 80.292 16.7979C80.0368 16.7979 79.8203 16.7318 79.6426 16.5996C79.4694 16.4629 79.3828 16.235 79.3828 15.916C79.3828 15.5924 79.4694 15.3646 79.6426 15.2324C79.8203 15.1003 80.0368 15.0342 80.292 15.0342ZM87.333 17.7891C88.1852 17.7891 88.8483 18.0101 89.3223 18.4521C89.8008 18.8896 90.04 19.5938 90.04 20.5645V25.5H88.4336V20.8652C88.4336 20.2773 88.3128 19.8376 88.0713 19.5459C87.8298 19.2497 87.4561 19.1016 86.9502 19.1016C86.2165 19.1016 85.7061 19.3271 85.4189 19.7783C85.1364 20.2295 84.9951 20.8835 84.9951 21.7402V25.5H83.3887V17.9326H84.6396L84.8652 18.958H84.9541C85.1182 18.6937 85.321 18.4772 85.5625 18.3086C85.8086 18.1354 86.082 18.0055 86.3828 17.9189C86.6882 17.8324 87.0049 17.7891 87.333 17.7891ZM95.3037 17.7891C95.9782 17.7891 96.557 17.9281 97.04 18.2061C97.5231 18.484 97.8945 18.8783 98.1543 19.3887C98.4141 19.8991 98.5439 20.5098 98.5439 21.2207V22.082H93.4922C93.5104 22.8158 93.7064 23.3809 94.0801 23.7773C94.4583 24.1738 94.987 24.3721 95.666 24.3721C96.1491 24.3721 96.582 24.3265 96.9648 24.2354C97.3522 24.1396 97.751 24.0007 98.1611 23.8184V25.124C97.7829 25.3018 97.3978 25.4316 97.0059 25.5137C96.6139 25.5957 96.1445 25.6367 95.5977 25.6367C94.8548 25.6367 94.2008 25.4932 93.6357 25.2061C93.0752 24.9144 92.6354 24.4814 92.3164 23.9072C92.002 23.333 91.8447 22.6198 91.8447 21.7676C91.8447 20.9199 91.9883 20.1999 92.2754 19.6074C92.5625 19.015 92.9658 18.5638 93.4854 18.2539C94.0049 17.944 94.611 17.7891 95.3037 17.7891ZM95.3037 18.999C94.7979 18.999 94.3877 19.1631 94.0732 19.4912C93.7633 19.8193 93.5811 20.3001 93.5264 20.9336H96.9717C96.9671 20.5553 96.9033 20.2204 96.7803 19.9287C96.6618 19.637 96.4795 19.4092 96.2334 19.2451C95.9919 19.0811 95.682 18.999 95.3037 18.999Z" fill="#F9F9F9"/>
</svg>
