<svg width="130" height="40" viewBox="0 0 130 40" fill="none" xmlns="http://www.w3.org/2000/svg">
<g clip-path="url(#clip0_2140_1004)">
<path fill-rule="evenodd" clip-rule="evenodd" d="M23.3333 13.8335C23.1122 13.8335 22.9003 13.9213 22.744 14.0776C22.5877 14.2339 22.4999 14.4458 22.4999 14.6668V26.1668H29.4999V14.6668C29.4999 14.4458 29.4121 14.2339 29.2558 14.0776C29.0996 13.9213 28.8876 13.8335 28.6666 13.8335H23.3333ZM30.4999 17.5002V14.6668C30.4999 14.1806 30.3068 13.7143 29.9629 13.3705C29.6191 13.0267 29.1528 12.8335 28.6666 12.8335H23.3333C22.847 12.8335 22.3807 13.0267 22.0369 13.3705C21.6931 13.7143 21.4999 14.1806 21.4999 14.6668V19.5002H20.6666C20.1804 19.5002 19.714 19.6933 19.3702 20.0371C19.0264 20.3809 18.8333 20.8473 18.8333 21.3335V25.3335C18.8333 25.8197 19.0264 26.286 19.3702 26.6299C19.714 26.9737 20.1804 27.1668 20.6666 27.1668H31.3333C31.8195 27.1668 32.2858 26.9737 32.6296 26.6299C32.9734 26.286 33.1666 25.8197 33.1666 25.3335V19.3335C33.1666 18.8473 32.9734 18.3809 32.6296 18.0371C32.2858 17.6933 31.8195 17.5002 31.3333 17.5002H30.4999ZM30.4999 18.5002V26.1668H31.3333C31.5543 26.1668 31.7662 26.079 31.9225 25.9228C32.0788 25.7665 32.1666 25.5545 32.1666 25.3335V19.3335C32.1666 19.1125 32.0788 18.9005 31.9225 18.7442C31.7662 18.588 31.5543 18.5002 31.3333 18.5002H30.4999ZM21.4999 20.5002H20.6666C20.4456 20.5002 20.2336 20.588 20.0773 20.7442C19.921 20.9005 19.8333 21.1125 19.8333 21.3335V25.3335C19.8333 25.5545 19.921 25.7665 20.0773 25.9228C20.2336 26.079 20.4456 26.1668 20.6666 26.1668H21.4999V20.5002ZM24.1666 16.0002C24.1666 15.724 24.3904 15.5002 24.6666 15.5002H27.3333C27.6094 15.5002 27.8333 15.724 27.8333 16.0002C27.8333 16.2763 27.6094 16.5002 27.3333 16.5002H24.6666C24.3904 16.5002 24.1666 16.2763 24.1666 16.0002ZM24.1666 18.6668C24.1666 18.3907 24.3904 18.1668 24.6666 18.1668H27.3333C27.6094 18.1668 27.8333 18.3907 27.8333 18.6668C27.8333 18.943 27.6094 19.1668 27.3333 19.1668H24.6666C24.3904 19.1668 24.1666 18.943 24.1666 18.6668ZM24.1666 21.3335C24.1666 21.0574 24.3904 20.8335 24.6666 20.8335H27.3333C27.6094 20.8335 27.8333 21.0574 27.8333 21.3335C27.8333 21.6096 27.6094 21.8335 27.3333 21.8335H24.6666C24.3904 21.8335 24.1666 21.6096 24.1666 21.3335ZM24.1666 24.0002C24.1666 23.724 24.3904 23.5002 24.6666 23.5002H27.3333C27.6094 23.5002 27.8333 23.724 27.8333 24.0002C27.8333 24.2763 27.6094 24.5002 27.3333 24.5002H24.6666C24.3904 24.5002 24.1666 24.2763 24.1666 24.0002Z" fill="#59B2FF"/>
</g>
<path d="M46.2178 15.5059C47.5075 15.5059 48.4486 15.7702 49.041 16.2988C49.6335 16.8275 49.9297 17.568 49.9297 18.5205C49.9297 18.9535 49.8613 19.3659 49.7246 19.7578C49.5924 20.1452 49.3737 20.4893 49.0684 20.79C48.763 21.0863 48.3597 21.321 47.8584 21.4941C47.3617 21.6673 46.7487 21.7539 46.0195 21.7539H44.9531V25.5H43.3125V15.5059H46.2178ZM46.1084 16.8662H44.9531V20.3867H45.8486C46.3636 20.3867 46.8011 20.3275 47.1611 20.209C47.5212 20.0859 47.7946 19.8923 47.9814 19.6279C48.1683 19.3636 48.2617 19.015 48.2617 18.582C48.2617 18.0033 48.0863 17.5726 47.7354 17.29C47.389 17.0075 46.8467 16.8662 46.1084 16.8662ZM55.5967 17.7891C55.7243 17.7891 55.8633 17.7959 56.0137 17.8096C56.1641 17.8232 56.2939 17.8415 56.4033 17.8643L56.2529 19.3682C56.1572 19.3408 56.0387 19.3203 55.8975 19.3066C55.7607 19.293 55.6377 19.2861 55.5283 19.2861C55.2412 19.2861 54.9678 19.334 54.708 19.4297C54.4482 19.5208 54.2181 19.6621 54.0176 19.8535C53.8171 20.0404 53.6598 20.2751 53.5459 20.5576C53.432 20.8402 53.375 21.1683 53.375 21.542V25.5H51.7617V17.9326H53.0195L53.2383 19.2656H53.3135C53.4639 18.9967 53.6507 18.7507 53.874 18.5273C54.0973 18.304 54.3525 18.1263 54.6396 17.9941C54.9313 17.8574 55.2503 17.7891 55.5967 17.7891ZM60.8193 17.7891C61.4938 17.7891 62.0726 17.9281 62.5557 18.2061C63.0387 18.484 63.4102 18.8783 63.6699 19.3887C63.9297 19.8991 64.0596 20.5098 64.0596 21.2207V22.082H59.0078C59.026 22.8158 59.222 23.3809 59.5957 23.7773C59.974 24.1738 60.5026 24.3721 61.1816 24.3721C61.6647 24.3721 62.0977 24.3265 62.4805 24.2354C62.8678 24.1396 63.2666 24.0007 63.6768 23.8184V25.124C63.2985 25.3018 62.9134 25.4316 62.5215 25.5137C62.1296 25.5957 61.6602 25.6367 61.1133 25.6367C60.3704 25.6367 59.7165 25.4932 59.1514 25.2061C58.5908 24.9144 58.151 24.4814 57.832 23.9072C57.5176 23.333 57.3604 22.6198 57.3604 21.7676C57.3604 20.9199 57.5039 20.1999 57.791 19.6074C58.0781 19.015 58.4814 18.5638 59.001 18.2539C59.5205 17.944 60.1266 17.7891 60.8193 17.7891ZM60.8193 18.999C60.3135 18.999 59.9033 19.1631 59.5889 19.4912C59.279 19.8193 59.0967 20.3001 59.042 20.9336H62.4873C62.4827 20.5553 62.4189 20.2204 62.2959 19.9287C62.1774 19.637 61.9951 19.4092 61.749 19.2451C61.5075 19.0811 61.1976 18.999 60.8193 18.999ZM70.957 23.3398C70.957 23.8366 70.8363 24.2559 70.5947 24.5977C70.3532 24.9395 70 25.1992 69.5352 25.377C69.0749 25.5501 68.5098 25.6367 67.8398 25.6367C67.3112 25.6367 66.8555 25.598 66.4727 25.5205C66.0944 25.4476 65.7367 25.3337 65.3994 25.1787V23.791C65.7594 23.9596 66.1628 24.1055 66.6094 24.2285C67.0605 24.3516 67.4867 24.4131 67.8877 24.4131C68.4163 24.4131 68.7969 24.3311 69.0293 24.167C69.2617 23.9984 69.3779 23.7751 69.3779 23.4971C69.3779 23.333 69.3301 23.1872 69.2344 23.0596C69.1432 22.9274 68.9701 22.793 68.7148 22.6562C68.4642 22.515 68.0951 22.3464 67.6074 22.1504C67.1289 21.959 66.7256 21.7676 66.3975 21.5762C66.0693 21.3848 65.821 21.1546 65.6523 20.8857C65.4837 20.6123 65.3994 20.2637 65.3994 19.8398C65.3994 19.1699 65.6637 18.6618 66.1924 18.3154C66.7256 17.9645 67.4297 17.7891 68.3047 17.7891C68.7695 17.7891 69.207 17.8369 69.6172 17.9326C70.0319 18.0238 70.4375 18.1582 70.834 18.3359L70.3281 19.5459C69.9863 19.3955 69.6423 19.2725 69.2959 19.1768C68.9541 19.0765 68.6055 19.0264 68.25 19.0264C67.8353 19.0264 67.5186 19.0902 67.2998 19.2178C67.0856 19.3454 66.9785 19.5277 66.9785 19.7646C66.9785 19.9424 67.0309 20.0928 67.1357 20.2158C67.2406 20.3389 67.4206 20.4619 67.6758 20.585C67.9355 20.708 68.2956 20.8607 68.7559 21.043C69.207 21.2161 69.5967 21.3984 69.9248 21.5898C70.2575 21.7767 70.5127 22.0068 70.6904 22.2803C70.8682 22.5537 70.957 22.9069 70.957 23.3398ZM75.708 17.7891C76.3825 17.7891 76.9613 17.9281 77.4443 18.2061C77.9274 18.484 78.2988 18.8783 78.5586 19.3887C78.8184 19.8991 78.9482 20.5098 78.9482 21.2207V22.082H73.8965C73.9147 22.8158 74.1107 23.3809 74.4844 23.7773C74.8626 24.1738 75.3913 24.3721 76.0703 24.3721C76.5534 24.3721 76.9863 24.3265 77.3691 24.2354C77.7565 24.1396 78.1553 24.0007 78.5654 23.8184V25.124C78.1872 25.3018 77.8021 25.4316 77.4102 25.5137C77.0182 25.5957 76.5488 25.6367 76.002 25.6367C75.2591 25.6367 74.6051 25.4932 74.04 25.2061C73.4795 24.9144 73.0397 24.4814 72.7207 23.9072C72.4062 23.333 72.249 22.6198 72.249 21.7676C72.249 20.9199 72.3926 20.1999 72.6797 19.6074C72.9668 19.015 73.3701 18.5638 73.8896 18.2539C74.4092 17.944 75.0153 17.7891 75.708 17.7891ZM75.708 18.999C75.2021 18.999 74.792 19.1631 74.4775 19.4912C74.1676 19.8193 73.9854 20.3001 73.9307 20.9336H77.376C77.3714 20.5553 77.3076 20.2204 77.1846 19.9287C77.0661 19.637 76.8838 19.4092 76.6377 19.2451C76.3962 19.0811 76.0863 18.999 75.708 18.999ZM84.7041 17.7891C85.5563 17.7891 86.2194 18.0101 86.6934 18.4521C87.1719 18.8896 87.4111 19.5938 87.4111 20.5645V25.5H85.8047V20.8652C85.8047 20.2773 85.6839 19.8376 85.4424 19.5459C85.2008 19.2497 84.8271 19.1016 84.3213 19.1016C83.5876 19.1016 83.0771 19.3271 82.79 19.7783C82.5075 20.2295 82.3662 20.8835 82.3662 21.7402V25.5H80.7598V17.9326H82.0107L82.2363 18.958H82.3252C82.4893 18.6937 82.6921 18.4772 82.9336 18.3086C83.1797 18.1354 83.4531 18.0055 83.7539 17.9189C84.0592 17.8324 84.376 17.7891 84.7041 17.7891ZM92.709 25.6367C91.9935 25.6367 91.3737 25.4977 90.8496 25.2197C90.3255 24.9417 89.9222 24.5156 89.6396 23.9414C89.3571 23.3672 89.2158 22.638 89.2158 21.7539C89.2158 20.8333 89.3708 20.0814 89.6807 19.498C89.9906 18.9147 90.4189 18.484 90.9658 18.2061C91.5173 17.9281 92.1484 17.7891 92.8594 17.7891C93.3105 17.7891 93.7184 17.8346 94.083 17.9258C94.4521 18.0124 94.7643 18.1195 95.0195 18.2471L94.541 19.5322C94.263 19.4183 93.9782 19.3226 93.6865 19.2451C93.3949 19.1676 93.1146 19.1289 92.8457 19.1289C92.4036 19.1289 92.0345 19.2269 91.7383 19.4229C91.4466 19.6188 91.2279 19.9105 91.082 20.2979C90.9408 20.6852 90.8701 21.166 90.8701 21.7402C90.8701 22.2962 90.943 22.7656 91.0889 23.1484C91.2347 23.5267 91.4512 23.8138 91.7383 24.0098C92.0254 24.2012 92.3786 24.2969 92.7979 24.2969C93.2126 24.2969 93.584 24.2467 93.9121 24.1465C94.2402 24.0462 94.5501 23.9163 94.8418 23.7568V25.1514C94.5547 25.3154 94.2471 25.4362 93.9189 25.5137C93.5908 25.5957 93.1875 25.6367 92.709 25.6367ZM98.2256 17.9326V25.5H96.6191V17.9326H98.2256ZM97.4326 15.0342C97.6787 15.0342 97.8906 15.1003 98.0684 15.2324C98.2507 15.3646 98.3418 15.5924 98.3418 15.916C98.3418 16.235 98.2507 16.4629 98.0684 16.5996C97.8906 16.7318 97.6787 16.7979 97.4326 16.7979C97.1774 16.7979 96.9609 16.7318 96.7832 16.5996C96.61 16.4629 96.5234 16.235 96.5234 15.916C96.5234 15.5924 96.61 15.3646 96.7832 15.2324C96.9609 15.1003 97.1774 15.0342 97.4326 15.0342ZM103.496 17.7891C104.453 17.7891 105.175 18.001 105.663 18.4248C106.155 18.8486 106.401 19.5094 106.401 20.4072V25.5H105.26L104.952 24.4268H104.897C104.683 24.7002 104.462 24.9258 104.234 25.1035C104.007 25.2812 103.742 25.4134 103.441 25.5C103.145 25.5911 102.783 25.6367 102.354 25.6367C101.903 25.6367 101.5 25.5547 101.145 25.3906C100.789 25.222 100.509 24.9668 100.304 24.625C100.099 24.2832 99.9961 23.8503 99.9961 23.3262C99.9961 22.5469 100.285 21.9613 100.864 21.5693C101.448 21.1774 102.327 20.9609 103.503 20.9199L104.815 20.8721V20.4756C104.815 19.9515 104.692 19.5778 104.446 19.3545C104.205 19.1312 103.863 19.0195 103.421 19.0195C103.043 19.0195 102.676 19.0742 102.32 19.1836C101.965 19.293 101.618 19.4274 101.281 19.5869L100.762 18.4521C101.131 18.2562 101.55 18.0967 102.02 17.9736C102.493 17.8506 102.986 17.7891 103.496 17.7891ZM104.809 21.8838L103.831 21.918C103.029 21.9453 102.466 22.082 102.143 22.3281C101.819 22.5742 101.657 22.9115 101.657 23.3398C101.657 23.7135 101.769 23.987 101.992 24.1602C102.215 24.3288 102.509 24.4131 102.874 24.4131C103.43 24.4131 103.89 24.2559 104.255 23.9414C104.624 23.6224 104.809 23.1553 104.809 22.54V21.8838ZM110.264 25.5H108.65V14.8633H110.264V25.5Z" fill="#F9F9F9"/>
<defs>
<clipPath id="clip0_2140_1004">
<rect width="16" height="16" fill="white" transform="translate(18 12)"/>
</clipPath>
</defs>
</svg>
